<svg xmlns="http://www.w3.org/2000/svg" xmlns:xlink="http://www.w3.org/1999/xlink" version="1.1" x="0px" y="0px" viewBox="0 0 50 62.5" enable-background="new 0 0 50 50" xml:space="preserve"><g><g><path d="M37.10581,1H7C6.4477,1,6,1.4477,6,2v46c0,0.5522,0.4477,1,1,1h36c0.5523,0,1-0.4478,1-1V7.8942    c0-0.2653-0.1054-0.5196-0.2929-0.7071l-5.8942-5.8942C37.6254,1.1053,37.371,1,37.10581,1z M42,47H8V3h27.43v6.5H42V47z"/><g><g><path d="M21.6974,11.2466c-1.85,3.47-2.46,10-1.31,15.27l1.28,5.86h-1.47l-3.86-6.68      C13.0774,20.0566,16.0274,13.2066,21.6974,11.2466z"/><path d="M27.6574,26.0866l-1.38,6.29h-2.56l-1.38-6.29c-1.28-5.87-0.16-12.47,1.65-14.72c0.24-0.3,0.62-0.67,1.01-0.67      c0.04,0,0.08,0,0.13,0.01C27.3265,11.1126,29.162,19.27509,27.6574,26.0866z"/><path d="M33.6574,25.6966l-3.86,6.68h-1.47l1.28-5.86c1.2639-5.736,0.3955-12.1117-1.28-15.26      C33.9997,13.2222,36.90781,20.0696,33.6574,25.6966z"/></g><path d="M27.0107,39.3033h-4.0833c-1.10459,0-2-0.8954-2-2v-2.9267h8.0833v2.9267     C29.0107,38.40789,28.1153,39.3033,27.0107,39.3033z"/></g></g><g><path d="M37.10581,1H7C6.4477,1,6,1.4477,6,2v46c0,0.5522,0.4477,1,1,1h36c0.5523,0,1-0.4478,1-1V7.8942    c0-0.2653-0.1054-0.5196-0.2929-0.7071l-5.8942-5.8942C37.6254,1.1053,37.371,1,37.10581,1z M42,47H8V3h27.43v6.5H42V47z"/><g><g><path d="M21.6974,11.2466c-1.85,3.47-2.46,10-1.31,15.27l1.28,5.86h-1.47l-3.86-6.68      C13.0774,20.0566,16.0274,13.2066,21.6974,11.2466z"/><path d="M27.6574,26.0866l-1.38,6.29h-2.56l-1.38-6.29c-1.28-5.87-0.16-12.47,1.65-14.72c0.24-0.3,0.62-0.67,1.01-0.67      c0.04,0,0.08,0,0.13,0.01C27.3265,11.1126,29.162,19.27509,27.6574,26.0866z"/><path d="M33.6574,25.6966l-3.86,6.68h-1.47l1.28-5.86c1.2639-5.736,0.3955-12.1117-1.28-15.26      C33.9997,13.2222,36.90781,20.0696,33.6574,25.6966z"/></g><path d="M27.0107,39.3033h-4.0833c-1.10459,0-2-0.8954-2-2v-2.9267h8.0833v2.9267     C29.0107,38.40789,28.1153,39.3033,27.0107,39.3033z"/></g></g></g><text x="0" y="65" fill="#000000" font-size="5px" font-weight="bold" font-family="'Helvetica Neue', Helvetica, Arial-Unicode, Arial, Sans-serif">Created by Vectors Point</text><text x="0" y="70" fill="#000000" font-size="5px" font-weight="bold" font-family="'Helvetica Neue', Helvetica, Arial-Unicode, Arial, Sans-serif">from the Noun Project</text></svg>